<svg xmlns="http://www.w3.org/2000/svg" version="1.1" xmlns:xlink="http://www.w3.org/1999/xlink" xmlns:svgjs="http://svgjs.dev/svgjs" width="1000" height="1000" viewBox="0 0 1000 1000"><rect width="1000" height="1000" fill="#ffffff"></rect><g transform="matrix(0.7,0,0,0.7,150,106.25)"><svg viewBox="0 0 320 360" data-background-color="#ffffff" preserveAspectRatio="xMidYMid meet" height="1125" width="1000" xmlns="http://www.w3.org/2000/svg" xmlns:xlink="http://www.w3.org/1999/xlink"><g id="tight-bounds" transform="matrix(1,0,0,1,0,0)"><svg viewBox="0 0 320 360" height="360" width="320"><g><svg></svg></g><g><svg viewBox="0 0 320 360" height="360" width="320"><g><path xmlns="http://www.w3.org/2000/svg" d="M320 141.95l-19.957-19.957v-28.224l-53.812-53.812h-28.223l-19.958-19.957h-76.1l-19.957 19.957h-28.224l-53.812 53.812v28.224l-19.957 19.957v76.104l19.957 19.958v28.223l53.816 53.808h28.224l19.957 19.957h76.104l19.958-19.957h28.223l53.812-53.812v-28.224l19.949-19.957zM244.374 44.437l51.189 51.189v21.887l-73.076-73.076zM295.563 123.849v112.306l-79.408 79.408h-112.306l-79.412-79.412v-112.302l79.412-79.412h112.306zM123.807 24.48h72.39l15.478 15.477h-103.346zM24.437 95.626l51.189-51.189h21.887l-73.076 73.076zM4.484 216.197v-72.394l15.477-15.478v103.342zM75.626 315.563l-51.189-51.189v-21.887l73.076 73.076zM196.197 335.52h-72.39l-15.478-15.477h103.342zM295.563 264.374l-51.189 51.189h-21.887l73.076-73.076zM315.52 216.197l-15.477 15.478v-103.346l15.477 15.478z" fill="#ee3e38" fill-rule="nonzero" stroke="none" stroke-width="1" stroke-linecap="butt" stroke-linejoin="miter" stroke-miterlimit="10" stroke-dasharray="" stroke-dashoffset="0" font-family="none" font-weight="none" font-size="none" text-anchor="none" style="mix-blend-mode: normal" data-fill-palette-color="tertiary"></path></g><g transform="matrix(1,0,0,1,75.71823204419891,90)"><svg viewBox="0 0 168.56353591160217 180" height="180" width="168.56353591160217"><g><svg viewBox="0 0 168.56353591160217 180" height="180" width="168.56353591160217"><g><svg viewBox="0 0 168.56353591160217 180" height="180" width="168.56353591160217"><g><svg viewBox="0 0 168.56353591160217 180" height="180" width="168.56353591160217"><g><svg viewBox="0 0 168.56353591160217 180" height="180" width="168.56353591160217"><g><svg viewBox="0 0 168.56353591160217 180" height="180" width="168.56353591160217"><g transform="matrix(1,0,0,1,0,0)"><svg width="168.56353591160217" viewBox="1.9500000476837158 -35.599998474121094 33.89999771118164 36.19999694824219" height="180" data-palette-color="#ee3e38"><path d="M27.8-7.8L27.8-18.05 35.2-18.05 35.2-3.85Q32.35-1.7 28.6-0.55 24.85 0.6 21.05 0.6L21.05 0.6Q15.6 0.6 11.25-1.73 6.9-4.05 4.42-8.18 1.95-12.3 1.95-17.5L1.95-17.5Q1.95-22.7 4.42-26.83 6.9-30.95 11.3-33.27 15.7-35.6 21.2-35.6L21.2-35.6Q25.8-35.6 29.55-34.05 33.3-32.5 35.85-29.55L35.85-29.55 30.65-24.75Q26.9-28.7 21.6-28.7L21.6-28.7Q18.25-28.7 15.65-27.3 13.05-25.9 11.6-23.35 10.15-20.8 10.15-17.5L10.15-17.5Q10.15-14.25 11.6-11.7 13.05-9.15 15.63-7.73 18.2-6.3 21.5-6.3L21.5-6.3Q25-6.3 27.8-7.8L27.8-7.8Z" opacity="1" transform="matrix(1,0,0,1,0,0)" fill="#ee3e38" class="undefined-text-0" data-fill-palette-color="primary" id="text-0"></path></svg></g></svg></g></svg></g></svg></g><g></g></svg></g></svg></g></svg></g></svg></g><defs></defs></svg><rect width="320" height="360" fill="none" stroke="none" visibility="hidden"></rect></g></svg></g></svg>